<svg width="835" height="355" viewBox="0 0 835 355" fill="none" xmlns="http://www.w3.org/2000/svg">
<path d="M832.214 142.959L832.736 212.767L596.011 352.467L597.067 281.642L832.214 142.959Z" stroke="#828282" stroke-width="4" stroke-miterlimit="10" stroke-linecap="square" stroke-linejoin="round"/>
<path d="M713.622 142.901L654.699 177.514L654.687 177.502L594.862 142.586L593.972 72.3784L713.622 142.901Z" stroke="#828282" stroke-width="4" stroke-miterlimit="10" stroke-linecap="square" stroke-linejoin="round"/>
<path d="M597.068 281.641L596.012 352.467L417.652 247.283L357.993 212.1L298.5 177.003L239.066 141.953V71.6973L597.068 281.641Z" stroke="#828282" stroke-width="4" stroke-miterlimit="10" stroke-linecap="square" stroke-linejoin="round"/>
<path d="M593.971 72.3784L594.861 142.586L535.7 177.466L476.231 142.392L593.971 72.3784Z" stroke="#828282" stroke-width="4" stroke-miterlimit="10" stroke-linecap="square" stroke-linejoin="round"/>
<path d="M417.652 247.285L417.629 247.309L240.135 351.754L240.028 281.644L357.993 212.103L417.652 247.285Z" stroke="#828282" stroke-width="4" stroke-miterlimit="10" stroke-linecap="square" stroke-linejoin="round"/>
<path d="M240.031 281.645L240.137 351.756L2 211.389V141.302L240.031 281.645Z" stroke="#828282" stroke-width="4" stroke-miterlimit="10" stroke-linecap="square" stroke-linejoin="round"/>
<path d="M239.067 71.6973V141.953L179.919 176.736L120.26 141.614L239.067 71.6973Z" stroke="#828282" stroke-width="4" stroke-miterlimit="10" stroke-linecap="square" stroke-linejoin="round"/>
<path d="M476.233 142.391L535.703 177.464L595.136 212.514L654.7 177.525L713.623 142.912L593.973 72.3772L476.233 142.391ZM416.729 107.245L594.056 2.63008L832.217 142.912L597.082 281.643L239.093 71.7106L120.262 141.615L179.921 176.762L239.485 211.823L298.503 177.016L358.007 212.162L240.031 281.703L2 141.373L238.167 2L416.729 107.245Z" stroke="#828282" stroke-width="4" stroke-miterlimit="10" stroke-linecap="square" stroke-linejoin="round"/>
<path d="M476.233 142.391L416.716 107.293" stroke="#828282" stroke-width="4" stroke-miterlimit="10" stroke-linecap="square" stroke-linejoin="round"/>
</svg>
